<svg version="1.1" id="Layer_1" xmlns="http://www.w3.org/2000/svg" xmlns:xlink="http://www.w3.org/1999/xlink" x="0px" y="0px"
	 width="100%" viewBox="0 0 1000 1000" enable-background="new 0 0 1000 1000" xml:space="preserve">
<path fill="#000000" opacity="1.000000" stroke="none" 
	d="
M486.000000,1001.000000 
	C324.000000,1001.000000 162.500000,1001.000000 1.000000,1001.000000 
	C1.000000,667.666687 1.000000,334.333344 1.000000,1.000000 
	C334.333344,1.000000 667.666687,1.000000 1001.000000,1.000000 
	C1001.000000,334.333344 1001.000000,667.666687 1001.000000,1001.000000 
	C829.500000,1001.000000 658.000000,1001.000000 486.000000,1001.000000 
M494.824158,323.028076 
	C494.701111,323.241486 494.578033,323.454865 494.065582,323.766693 
	C493.350494,324.498108 492.635406,325.229553 491.091766,326.018524 
	C486.636749,328.960724 482.181732,331.902924 477.288879,334.771515 
	C471.335327,337.232910 465.381775,339.694305 458.776184,341.910889 
	C456.916779,342.565979 455.038452,343.172546 453.202118,343.886932 
	C450.000214,345.132538 445.477509,345.593842 443.988556,347.950714 
	C442.246613,350.708008 443.158112,355.141571 442.038422,358.897766 
	C441.668274,359.521179 440.976410,360.143921 440.975098,360.768097 
	C440.945282,375.167725 440.944427,389.568054 441.105347,403.966339 
	C441.118896,405.180084 442.311035,406.380585 443.247192,408.094849 
	C447.796021,407.632568 452.456726,407.644592 456.869019,406.603607 
	C464.687469,404.759064 472.453613,402.564392 480.057709,399.975891 
	C487.529114,397.432556 494.771881,394.217468 502.676270,391.228027 
	C507.657776,388.958466 512.639282,386.688873 518.925232,383.824982 
	C518.977661,464.137604 519.029785,543.974182 518.585022,624.267639 
	C518.227600,625.098633 517.577026,625.923340 517.559082,626.761597 
	C517.411072,633.663330 515.442200,639.883728 510.321686,645.289673 
	C509.638184,645.712769 508.914795,646.083435 508.278046,646.567871 
	C505.296814,648.836487 502.644196,652.139771 499.292358,653.157837 
	C495.545135,654.295959 491.171509,653.371765 486.177002,652.979065 
	C481.850983,653.046936 477.524933,653.114746 473.076263,652.613892 
	C469.997528,651.326294 466.715973,650.378479 463.879333,648.685242 
	C456.345703,644.188232 448.983215,639.401917 441.606934,634.646484 
	C440.415375,633.878296 439.640076,632.452393 438.436005,631.717834 
	C433.656738,628.802002 427.954681,626.871033 424.119415,623.046204 
	C416.311951,615.259888 406.694824,610.471191 397.511047,604.969849 
	C388.488373,599.564941 379.845001,593.251282 369.275146,590.900757 
	C361.090790,589.080750 354.243408,583.333862 345.178223,583.638611 
	C339.930115,583.815063 334.607361,581.771545 328.824921,580.130554 
	C324.814362,579.788452 320.807007,579.278320 316.791382,579.201843 
	C315.505066,579.177307 314.196869,580.299866 312.098083,581.006409 
	C308.372314,581.204224 304.422394,580.673157 300.963013,581.737061 
	C290.749603,584.878296 280.035889,586.832642 270.204224,592.958740 
	C266.512115,594.507141 262.820038,596.055603 259.260071,597.548584 
	C259.260071,599.440491 259.260071,601.174683 259.260071,604.317993 
	C263.246979,602.236694 266.455414,600.561707 270.523560,598.905212 
	C271.089844,598.817444 271.656158,598.729675 272.507324,598.592590 
	C272.591095,598.420532 272.678589,598.250366 273.669983,598.016357 
	C278.342590,597.796692 283.259949,599.178711 288.062469,596.379944 
	C293.686066,596.504395 299.309631,596.628784 305.791016,596.841797 
	C312.739014,597.543640 319.686981,598.245483 326.756012,599.496948 
	C328.802429,600.346680 330.826050,601.257202 332.899750,602.034119 
	C338.036560,603.958801 343.436066,605.350464 348.292053,607.818176 
	C356.075653,611.773682 363.743591,616.066467 371.013947,620.889771 
	C377.559753,625.232300 383.681000,630.274841 389.655060,635.398499 
	C393.701508,638.868958 397.169128,643.014282 401.019257,647.782959 
	C401.667175,652.732117 402.257507,657.689697 402.980072,662.627930 
	C403.634491,667.100342 403.495667,671.996887 405.359680,675.921265 
	C409.473328,684.581970 405.261841,692.379944 404.273956,700.542053 
	C403.735718,704.988953 403.392395,709.502747 403.571747,713.961853 
	C403.615112,715.039551 406.113647,716.955383 407.420868,716.903931 
	C425.260071,716.201172 443.289825,719.214783 459.345917,715.108643 
	C461.937744,710.233276 463.855774,706.625366 465.706696,703.143738 
	C467.644135,702.989685 469.300018,702.858032 471.684998,702.922485 
	C473.121735,703.272217 474.558502,703.621948 476.585663,704.213562 
	C482.668091,705.848755 488.750519,707.483887 494.994629,709.946289 
	C503.422150,710.037354 511.849670,710.139587 520.277405,710.171570 
	C520.561401,710.172668 520.848145,709.465881 521.832092,708.727905 
	C525.042114,708.132812 528.385925,707.921692 531.433167,706.859497 
	C537.079529,704.891541 542.552551,702.425964 548.859192,700.072449 
	C553.185669,697.824646 558.198425,696.331055 561.684082,693.159180 
	C567.487061,687.878540 572.311096,681.522156 577.817810,675.504578 
	C578.138550,675.151306 578.459351,674.797974 578.982178,673.774048 
	C579.016418,673.543152 579.050598,673.312195 579.693237,672.990356 
	C580.149963,672.363586 580.606689,671.736816 581.099182,671.086121 
	C581.099182,671.086121 581.118225,671.047546 581.784241,670.874695 
	C583.022095,669.020264 584.683105,667.318298 585.416809,665.282227 
	C587.445129,659.652954 589.086487,653.884216 591.242737,647.000061 
	C591.414062,646.629333 591.585449,646.258667 591.897583,645.952881 
	C591.897583,645.952881 592.062622,646.130798 592.062622,646.130798 
	C592.062622,646.130798 591.809448,646.316406 592.044189,645.464478 
	C592.331604,644.648010 592.619019,643.831482 593.044739,642.388123 
	C593.350525,638.880676 593.656311,635.373230 594.493652,631.264343 
	C594.553467,612.982849 594.613281,594.701294 594.841919,575.442932 
	C594.903503,530.805298 594.976501,486.167694 595.015137,441.530060 
	C595.021362,434.373016 594.874329,427.215851 594.926270,419.176147 
	C594.875549,417.099060 594.824768,415.022003 594.935547,412.029999 
	C594.890747,401.379486 594.845886,390.728973 594.935913,379.139984 
	C594.971313,351.895325 595.038879,324.650543 594.968323,297.406158 
	C594.963745,295.637115 593.898071,293.870789 592.791077,291.335205 
	C570.195007,291.209320 547.598938,291.063293 525.002869,291.059113 
	C524.352661,291.058990 523.702271,292.563690 522.856384,294.123108 
	C522.844910,294.383301 522.833496,294.643463 522.297180,295.067017 
	C517.709351,300.186188 513.151367,305.332550 508.523468,310.415222 
	C505.306458,313.948364 501.993256,317.393951 498.850006,321.031799 
	C498.850006,321.031799 499.008820,320.911896 498.375610,320.912720 
	C497.437531,321.600891 496.499481,322.289062 494.824158,323.028076 
M372.233429,587.302856 
	C379.391754,591.150574 386.414490,595.282166 393.739227,598.781433 
	C405.549805,604.423645 416.967834,610.572632 426.494446,619.744751 
	C427.058014,620.287354 427.857788,620.582458 428.541565,621.002502 
	C431.651672,622.913269 435.222198,624.349792 437.782593,626.829041 
	C445.835144,634.626526 455.356689,639.927429 465.101807,645.251892 
	C473.053162,649.596313 480.878113,651.602783 489.831451,651.139771 
	C494.393463,650.903992 496.996094,648.709229 498.915649,645.360046 
	C504.672546,635.315613 510.216797,625.148376 515.745544,614.975586 
	C516.324524,613.910278 516.736816,612.331665 516.392395,611.259033 
	C514.741455,606.117432 512.427063,601.166016 511.071014,595.958862 
	C509.655884,590.524719 509.065826,584.875671 508.114868,579.319641 
	C507.153351,578.858582 505.197571,578.556702 504.450104,577.443481 
	C502.171051,574.049255 499.936005,574.235779 497.273834,577.249329 
	C496.847748,572.171143 496.021179,568.188782 491.022339,565.818848 
	C487.296143,564.052246 484.476410,560.470520 480.913940,558.238220 
	C476.098083,555.220520 471.295776,552.037842 464.973206,552.895386 
	C461.386627,553.381897 457.217896,553.919922 454.095001,552.591919 
	C447.234894,549.674683 441.790009,549.770386 436.840210,555.926392 
	C434.248657,559.149475 431.032074,561.891418 427.950531,564.688416 
	C426.732513,565.793945 425.114563,566.458923 422.983337,567.743713 
	C422.983337,565.078247 422.967957,563.441223 422.986206,561.804565 
	C423.045563,556.480774 422.649628,551.098328 423.310699,545.849487 
	C424.025787,540.172302 425.758240,534.625671 426.980865,529.007690 
	C427.189514,528.048767 426.665527,526.709900 427.158630,526.067444 
	C432.159790,519.551941 429.641418,511.082031 432.979156,504.143707 
	C433.924255,502.179108 434.528503,500.009460 435.009399,497.870941 
	C436.053864,493.226227 433.285706,489.716705 431.326263,485.917328 
	C428.077271,479.617432 421.219727,478.408875 416.945435,484.120728 
	C414.773102,487.023621 414.241730,491.146301 412.925323,494.701569 
	C412.320709,496.334290 411.108795,497.906006 411.035522,499.544006 
	C410.665039,507.826691 406.545166,514.938843 404.181396,522.590698 
	C403.812286,523.785645 403.235474,524.928223 402.973358,526.142212 
	C402.205414,529.699829 401.547852,533.281250 400.847015,536.853271 
	C400.192535,536.886536 399.538086,536.919800 398.883606,536.953064 
	C398.252777,534.948486 397.439606,532.978577 397.049500,530.928162 
	C396.743469,529.319702 397.311951,527.514893 396.884674,525.964661 
	C395.038544,519.266357 393.257050,512.523865 390.867340,506.012054 
	C389.539032,502.392456 389.876404,497.056641 383.690704,496.916046 
	C372.961395,496.672180 372.964905,496.591858 372.970001,507.483429 
	C372.972351,512.482239 372.956940,517.481018 372.971802,522.479858 
	C372.975250,523.641724 372.711548,524.977905 373.179504,525.936829 
	C376.306122,532.344238 377.239777,539.094543 377.056000,546.145203 
	C377.008911,547.952881 378.042572,549.776794 378.504089,551.612305 
	C379.410645,555.217773 380.264130,558.836670 381.443176,563.703125 
	C373.686493,555.426697 370.911255,545.775391 362.879730,539.625427 
	C359.314514,536.895386 356.267029,535.759827 352.847046,538.007996 
	C349.131531,540.450562 348.284729,546.028687 350.378876,549.776245 
	C356.218445,560.226257 362.094696,570.655945 368.003754,581.066895 
	C369.123901,583.040466 370.461487,584.890625 372.233429,587.302856 
z"/>
<path fill="#2F9777" opacity="1.000000" stroke="none" 
	d="
M519.081848,623.810730 
	C519.029785,543.974182 518.977661,464.137604 518.925232,383.824982 
	C512.639282,386.688873 507.657776,388.958466 502.238342,390.926147 
	C500.586212,389.809082 499.451080,388.828369 498.145447,388.204620 
	C486.416779,382.601135 473.848022,381.375397 461.072388,380.897644 
	C456.542786,380.728241 451.910370,379.969208 447.593109,378.620636 
	C444.653320,377.702301 444.184784,379.290649 443.154724,380.490662 
	C443.039246,372.968964 442.978912,365.908478 442.918579,358.847992 
	C443.158112,355.141571 442.246613,350.708008 443.988556,347.950714 
	C445.477509,345.593842 450.000214,345.132538 453.202118,343.886932 
	C455.038452,343.172546 456.916779,342.565979 459.330841,342.203156 
	C462.865631,341.617920 465.845795,340.740387 469.106384,339.861023 
	C469.705933,339.672119 470.025024,339.485077 470.580017,339.264862 
	C471.122589,339.158508 471.433472,339.117523 472.094116,339.369629 
	C476.251160,339.741486 480.063263,339.964661 483.874115,339.945129 
	C510.653870,339.807922 531.268677,351.428101 546.026306,373.329315 
	C556.502686,388.876984 562.055908,406.648804 567.170532,424.512543 
	C568.079834,427.688385 569.042114,430.849030 569.967102,434.434692 
	C570.237183,436.482056 570.492310,438.116821 570.807373,439.739929 
	C573.903564,455.690948 577.392700,471.577271 580.017395,487.605255 
	C583.362671,508.033417 586.011230,528.575684 588.598389,548.937134 
	C587.862549,548.106995 587.283752,547.446716 587.144714,546.704163 
	C584.430481,532.207214 582.024048,517.646423 578.969971,503.222412 
	C577.716614,497.302979 575.088745,491.674561 573.073608,485.516418 
	C567.519958,470.452148 562.543884,455.537903 556.265869,441.193481 
	C550.875122,428.876343 542.945618,417.924286 533.463013,408.276184 
	C530.554199,405.316498 527.168213,402.825836 523.380371,399.590485 
	C523.212280,401.799225 523.126709,402.924072 522.706848,404.041504 
	C521.927307,404.033630 521.481934,404.033142 521.036255,403.571442 
	C521.035828,399.839569 521.035828,396.568909 521.035828,393.298248 
	C520.712219,393.302582 520.388611,393.306946 520.065002,393.311279 
	C520.065002,413.554199 520.065002,433.797150 520.049744,454.505981 
	C520.053955,492.896423 520.073364,530.820984 520.044434,569.228149 
	C520.012817,583.414001 520.029663,597.117371 520.008545,611.216309 
	C519.994995,612.140503 520.019531,612.669006 519.995544,613.555176 
	C519.967285,614.874573 519.987549,615.836487 519.962891,617.218750 
	C519.639221,619.696350 519.360535,621.753540 519.081848,623.810730 
z"/>
<path fill="#14267F" opacity="1.000000" stroke="none" 
	d="
M329.318207,580.727112 
	C334.607361,581.771545 339.930115,583.815063 345.178223,583.638611 
	C354.243408,583.333862 361.090790,589.080750 369.275146,590.900757 
	C379.845001,593.251282 388.488373,599.564941 397.511047,604.969849 
	C406.694824,610.471191 416.311951,615.259888 424.119415,623.046204 
	C427.954681,626.871033 433.656738,628.802002 438.436005,631.717834 
	C439.640076,632.452393 440.415375,633.878296 441.606934,634.646484 
	C448.983215,639.401917 456.345703,644.188232 463.879333,648.685242 
	C466.715973,650.378479 469.997528,651.326294 473.421509,653.114502 
	C475.644043,654.036865 477.540222,654.866943 479.394104,654.781372 
	C481.969513,654.662415 484.513214,653.856689 487.070496,653.344971 
	C491.171509,653.371765 495.545135,654.295959 499.292358,653.157837 
	C502.644196,652.139771 505.296814,648.836487 508.278046,646.567871 
	C508.914795,646.083435 509.638184,645.712769 510.649200,645.650146 
	C509.095367,650.898560 506.988403,655.715759 505.426147,660.703674 
	C504.624420,663.263367 503.359680,663.745117 500.923096,664.164917 
	C498.620667,664.561707 496.566772,666.400757 494.403564,667.605408 
	C495.818817,669.844604 496.865692,672.483337 498.746490,674.217651 
	C500.893402,676.197327 503.896667,677.210388 506.329346,678.924988 
	C515.096558,685.104736 514.784973,689.990845 505.399963,695.273315 
	C504.965607,695.517822 504.536804,695.839355 504.065643,695.941345 
	C496.210602,697.643372 488.364807,699.395447 480.478668,700.941345 
	C478.423248,701.344238 475.876648,700.538635 475.995239,703.971680 
	C474.558502,703.621948 473.121735,703.272217 471.216003,702.523254 
	C467.397644,700.480408 464.239471,698.605469 461.080963,696.563416 
	C446.734375,687.287964 434.295197,675.848999 421.540222,664.216431 
	C417.579193,660.277527 413.796051,656.627319 409.985352,652.737244 
	C409.957733,652.497437 409.866852,652.023315 410.287628,652.019653 
	C414.146881,651.531982 416.463989,652.999023 418.982697,655.407959 
	C420.716156,657.065796 424.004395,657.500244 426.649536,657.668945 
	C428.585846,657.792358 430.586700,656.518127 432.594421,656.006775 
	C435.030945,655.386169 437.504913,654.912781 439.962677,654.375732 
	C440.122253,653.838013 440.281830,653.300232 440.441406,652.762512 
	C437.039764,650.026001 433.779327,647.087769 430.210358,644.590271 
	C418.797577,636.603760 407.334229,628.684998 395.744904,620.958252 
	C392.645477,618.891907 389.101135,617.422485 385.629639,615.999817 
	C379.228333,613.376343 372.213013,611.845520 366.382141,608.322449 
	C355.248199,601.595398 342.765869,599.324219 330.611389,596.102295 
	C323.175323,594.131104 315.274048,593.815430 307.549622,593.105408 
	C305.745239,592.939575 303.810669,594.190247 301.480774,594.854126 
	C296.505829,595.248840 291.986145,595.578613 287.466461,595.908447 
	C283.259949,599.178711 278.342590,597.796692 273.143433,598.058411 
	C272.657837,598.397705 272.526337,598.578186 272.222443,598.641907 
	C271.656158,598.729675 271.089844,598.817444 269.841431,598.698730 
	C266.454468,598.329285 266.398315,597.114197 268.032257,595.429688 
	C268.904083,594.530823 269.981201,593.831238 270.965668,593.041687 
	C280.035889,586.832642 290.749603,584.878296 300.963013,581.737061 
	C304.422394,580.673157 308.372314,581.204224 312.970947,581.017090 
	C319.001953,580.927551 324.160095,580.827332 329.318207,580.727112 
z"/>
<path fill="#8DCE5C" opacity="1.000000" stroke="none" 
	d="
M569.979980,434.016663 
	C569.042114,430.849030 568.079834,427.688385 567.170532,424.512543 
	C562.055908,406.648804 556.502686,388.876984 546.026306,373.329315 
	C531.268677,351.428101 510.653870,339.807922 483.874115,339.945129 
	C480.063263,339.964661 476.251160,339.741486 472.276642,339.062988 
	C473.984650,337.278625 475.855682,336.061859 477.726685,334.845123 
	C482.181732,331.902924 486.636749,328.960724 491.683228,326.060730 
	C493.001404,325.291382 493.728149,324.479828 494.454926,323.668274 
	C494.578033,323.454865 494.701111,323.241486 495.416992,322.959290 
	C497.009521,322.230988 498.009155,321.571442 499.008820,320.911896 
	C499.008820,320.911896 498.850006,321.031799 499.080994,320.945465 
	C499.867950,320.762299 500.423889,320.665466 501.377502,320.725739 
	C503.799622,321.333923 505.869293,322.320099 507.841431,322.153290 
	C527.540466,320.486603 544.665955,326.961121 559.039062,339.792084 
	C576.055054,354.982391 584.319580,375.227692 589.002380,397.121613 
	C589.261475,398.333099 589.874329,399.468964 590.322510,400.640015 
	C590.544983,400.529175 590.767395,400.418304 590.989868,400.307434 
	C590.989868,364.701172 590.989868,329.094879 591.338135,293.405579 
	C592.232971,292.916077 592.779541,292.509644 593.326050,292.103210 
	C593.898071,293.870789 594.963745,295.637115 594.968323,297.406158 
	C595.038879,324.650543 594.971313,351.895325 594.638489,379.940979 
	C594.231140,385.549835 593.972107,390.360138 594.049377,395.165009 
	C594.144653,401.093994 594.519775,407.018494 594.774048,412.944916 
	C594.824768,415.022003 594.875549,417.099060 594.631836,419.951660 
	C594.337341,432.351562 594.337341,443.975983 594.337341,455.600372 
	C593.865112,455.598938 593.392944,455.597534 592.920715,455.596100 
	C592.920715,452.969391 593.039551,450.335846 592.888428,447.717896 
	C592.726807,444.918091 592.159058,442.139832 592.031494,439.340210 
	C591.435547,426.266876 589.067383,426.636078 579.273621,427.104980 
	C577.506409,427.189606 575.671936,428.655609 574.127380,429.825592 
	C572.576538,431.000305 571.349182,432.602081 569.979980,434.016663 
z"/>
<path fill="#DDECE0" opacity="1.000000" stroke="none" 
	d="
M371.966064,587.050293 
	C370.461487,584.890625 369.123901,583.040466 368.003754,581.066895 
	C362.094696,570.655945 356.218445,560.226257 350.378876,549.776245 
	C348.284729,546.028687 349.131531,540.450562 352.847046,538.007996 
	C356.267029,535.759827 359.314514,536.895386 362.879730,539.625427 
	C370.911255,545.775391 373.686493,555.426697 381.443176,563.703125 
	C380.264130,558.836670 379.410645,555.217773 378.504089,551.612305 
	C378.042572,549.776794 377.008911,547.952881 377.056000,546.145203 
	C377.239777,539.094543 376.306122,532.344238 373.179504,525.936829 
	C372.711548,524.977905 372.975250,523.641724 372.971802,522.479858 
	C372.956940,517.481018 372.972351,512.482239 372.970001,507.483429 
	C372.964905,496.591858 372.961395,496.672180 383.690704,496.916046 
	C389.876404,497.056641 389.539032,502.392456 390.867340,506.012054 
	C393.257050,512.523865 395.038544,519.266357 396.884674,525.964661 
	C397.311951,527.514893 396.743469,529.319702 397.049500,530.928162 
	C397.439606,532.978577 398.252777,534.948486 398.883606,536.953064 
	C399.538086,536.919800 400.192535,536.886536 400.847015,536.853271 
	C401.547852,533.281250 402.205414,529.699829 402.973358,526.142212 
	C403.235474,524.928223 403.812286,523.785645 404.181396,522.590698 
	C406.545166,514.938843 410.665039,507.826691 411.035522,499.544006 
	C411.108795,497.906006 412.320709,496.334290 412.925323,494.701569 
	C414.241730,491.146301 414.773102,487.023621 416.945435,484.120728 
	C421.219727,478.408875 428.077271,479.617432 431.326263,485.917328 
	C433.285706,489.716705 436.053864,493.226227 435.009399,497.870941 
	C434.528503,500.009460 433.924255,502.179108 432.979156,504.143707 
	C429.641418,511.082031 432.159790,519.551941 427.158630,526.067444 
	C426.665527,526.709900 427.189514,528.048767 426.980865,529.007690 
	C425.758240,534.625671 424.025787,540.172302 423.310699,545.849487 
	C422.649628,551.098328 423.045563,556.480774 422.986206,561.804565 
	C422.967957,563.441223 422.983337,565.078247 422.983337,567.743713 
	C425.114563,566.458923 426.732513,565.793945 427.950531,564.688416 
	C431.032074,561.891418 434.248657,559.149475 436.840210,555.926392 
	C441.790009,549.770386 447.234894,549.674683 454.095001,552.591919 
	C457.217896,553.919922 461.386627,553.381897 464.973206,552.895386 
	C471.295776,552.037842 476.098083,555.220520 480.913940,558.238220 
	C484.476410,560.470520 487.296143,564.052246 491.022339,565.818848 
	C496.021179,568.188782 496.847748,572.171143 497.273834,577.249329 
	C499.936005,574.235779 502.171051,574.049255 504.450104,577.443481 
	C505.197571,578.556702 507.153351,578.858582 508.114868,579.319641 
	C509.065826,584.875671 509.655884,590.524719 511.071014,595.958862 
	C512.427063,601.166016 514.741455,606.117432 516.392395,611.259033 
	C516.736816,612.331665 516.324524,613.910278 515.745544,614.975586 
	C510.216797,625.148376 504.672546,635.315613 498.915649,645.360046 
	C496.996094,648.709229 494.393463,650.903992 489.831451,651.139771 
	C480.878113,651.602783 473.053162,649.596313 465.101807,645.251892 
	C455.356689,639.927429 445.835144,634.626526 437.782593,626.829041 
	C435.222198,624.349792 431.651672,622.913269 428.541565,621.002502 
	C427.857788,620.582458 427.058014,620.287354 426.494446,619.744751 
	C416.967834,610.572632 405.549805,604.423645 393.739227,598.781433 
	C386.414490,595.282166 379.391754,591.150574 371.966064,587.050293 
M429.610657,494.339233 
	C429.318939,493.740692 429.144226,493.035919 428.714600,492.562531 
	C427.107513,490.791840 425.416931,489.096893 423.757660,487.373566 
	C422.260590,489.440033 420.182373,491.303223 419.375183,493.611023 
	C416.934753,500.588135 414.978271,507.735016 412.850830,514.821045 
	C410.908752,521.289490 409.419739,527.943298 406.845703,534.148132 
	C405.835754,536.582703 402.619965,539.074097 400.032837,539.567139 
	C398.054688,539.944092 394.095917,537.697266 393.435883,535.783630 
	C391.346893,529.727112 390.449707,523.265747 388.983246,516.986267 
	C387.652710,511.288910 386.583527,505.387634 379.657501,501.410980 
	C378.633240,509.905273 377.258575,517.388672 378.880157,525.039978 
	C380.144989,531.008179 381.702057,536.914673 382.953857,542.885376 
	C383.662659,546.266113 383.943604,549.734314 384.551544,553.139099 
	C385.255890,557.083618 387.902679,561.686279 382.949615,564.277222 
	C377.988373,566.872498 375.095764,562.484985 372.064728,559.481812 
	C371.601410,559.022766 371.330139,558.376221 370.924194,557.851868 
	C368.690063,554.966187 366.632355,551.906860 364.108063,549.300415 
	C363.039886,548.197388 360.980438,548.054382 359.371552,547.475037 
	C359.339203,549.129150 358.672729,551.142700 359.374451,552.380737 
	C365.164429,562.595398 370.059143,573.663940 377.631073,582.384766 
	C381.784271,587.168091 388.264343,591.795044 394.332794,594.515686 
	C406.868347,600.135803 418.501801,606.790100 429.037933,615.515076 
	C431.295563,617.384583 433.735870,619.033630 437.102936,621.535400 
	C435.726807,617.693970 434.870544,615.303711 434.014282,612.913452 
	C434.391327,612.727295 434.768402,612.541138 435.145447,612.354980 
	C436.450806,613.476379 437.756195,614.597778 439.061554,615.719177 
	C439.425812,613.056702 438.841064,611.022644 438.529541,608.947571 
	C437.431488,601.633240 435.426392,594.199585 441.163574,587.697815 
	C443.467438,585.086975 445.518829,582.250061 447.866791,579.682129 
	C454.638367,572.276001 459.551025,571.247742 469.023895,574.423340 
	C474.764954,576.347900 480.666260,577.810852 486.530884,579.346313 
	C492.720917,580.966919 495.234528,583.967834 494.571045,588.837952 
	C493.902161,593.747620 493.299866,598.682129 493.020325,603.625671 
	C492.387878,614.810364 478.648193,629.700317 467.917603,629.819641 
	C463.207001,629.872070 459.550690,630.975220 456.105804,634.576050 
	C463.199249,638.618530 469.862335,642.948669 477.002045,646.247314 
	C480.300049,647.770996 484.263489,651.131836 487.609192,647.946655 
	C487.265320,645.448425 486.333099,642.467468 486.900391,642.147766 
	C489.500977,640.682556 492.521088,639.962036 495.390594,638.974182 
	C495.632233,639.449585 495.873871,639.924927 496.115509,640.400330 
	C499.872986,633.769287 503.383606,626.981689 507.461548,620.554016 
	C511.103180,614.814087 511.238953,609.348206 508.702911,603.158447 
	C506.645294,598.136353 505.133850,592.797974 504.154144,587.457886 
	C503.446472,583.600403 501.992371,581.575012 498.081024,580.823608 
	C496.391907,580.499146 494.281219,579.129883 493.533600,577.645264 
	C486.123627,562.930298 473.660156,556.815613 457.869019,555.948486 
	C455.272461,555.805908 452.703583,554.670715 450.132294,554.708008 
	C447.992279,554.739075 445.393860,555.245117 443.825287,556.541260 
	C439.238617,560.331482 435.259827,564.857361 430.672119,568.646118 
	C426.569366,572.034363 420.196228,569.920532 419.277802,564.744934 
	C418.454620,560.105896 418.044434,555.122375 418.821930,550.522339 
	C420.999481,537.639282 423.894531,524.877869 426.487915,512.064697 
	C427.631836,506.412781 428.730957,500.751831 429.610657,494.339233 
M443.338470,612.605896 
	C445.728821,614.916809 448.313995,617.061157 450.464172,619.577332 
	C453.753387,623.426331 458.359283,624.067932 462.780731,624.884949 
	C467.939270,625.838196 472.702271,624.373596 476.375244,620.494446 
	C479.404877,617.294800 483.318665,614.254700 484.736053,610.375061 
	C486.572845,605.347351 486.306946,599.554810 486.976227,594.095215 
	C487.189911,592.352051 487.430969,590.606628 487.782593,588.887451 
	C488.163696,587.024231 488.688446,585.190430 489.380280,582.425720 
	C487.174988,583.780518 485.995972,585.104065 485.158264,584.915039 
	C481.654510,584.124573 478.164490,583.097351 474.839752,581.739685 
	C471.652466,580.438049 468.826508,577.901184 465.567017,577.218140 
	C461.743561,576.416931 457.623627,577.030640 454.052429,577.030640 
	C451.850830,580.540955 450.396606,584.395813 447.665161,586.799133 
	C444.708649,589.400513 440.435822,595.983276 441.079681,599.804138 
	C441.756500,603.820801 442.405670,607.842041 443.338470,612.605896 
z"/>
<path fill="#173691" opacity="1.000000" stroke="none" 
	d="
M476.290466,704.092651 
	C475.876648,700.538635 478.423248,701.344238 480.478668,700.941345 
	C488.364807,699.395447 496.210602,697.643372 504.065643,695.941345 
	C504.536804,695.839355 504.965607,695.517822 505.399963,695.273315 
	C514.784973,689.990845 515.096558,685.104736 506.329346,678.924988 
	C503.896667,677.210388 500.893402,676.197327 498.746490,674.217651 
	C496.865692,672.483337 495.818817,669.844604 494.403564,667.605408 
	C496.566772,666.400757 498.620667,664.561707 500.923096,664.164917 
	C503.359680,663.745117 504.624420,663.263367 505.426147,660.703674 
	C506.988403,655.715759 509.095367,650.898560 510.984680,645.625671 
	C515.442200,639.883728 517.411072,633.663330 517.559082,626.761597 
	C517.577026,625.923340 518.227600,625.098633 518.833435,624.039185 
	C519.360535,621.753540 519.639221,619.696350 520.214355,617.046631 
	C520.355225,615.368652 520.199646,614.283081 520.044067,613.197571 
	C520.019531,612.669006 519.994995,612.140503 520.284668,610.934082 
	C521.464844,603.765808 521.701294,597.108276 523.368652,590.830811 
	C525.138428,584.167847 526.870544,583.794434 533.054199,587.056458 
	C541.058899,591.279053 548.948364,595.720154 556.841797,600.474121 
	C555.516724,610.592224 554.237244,620.303467 552.707092,630.250366 
	C548.629517,640.511963 544.955688,650.600159 540.916260,660.539673 
	C538.612671,666.207886 535.716125,671.635315 533.080139,677.168152 
	C530.807617,681.938110 532.258301,685.943054 535.838318,689.294128 
	C539.824646,693.025574 544.002930,696.551941 548.097717,700.167542 
	C542.552551,702.425964 537.079529,704.891541 531.433167,706.859497 
	C528.385925,707.921692 525.042114,708.132812 521.030762,708.737366 
	C511.763977,708.870911 503.298462,708.994995 494.832947,709.119080 
	C488.750519,707.483887 482.668091,705.848755 476.290466,704.092651 
z"/>
<path fill="#84C741" opacity="1.000000" stroke="none" 
	d="
M590.989868,293.488617 
	C590.989868,329.094879 590.989868,364.701172 590.989868,400.307434 
	C590.767395,400.418304 590.544983,400.529175 590.322510,400.640015 
	C589.874329,399.468964 589.261475,398.333099 589.002380,397.121613 
	C584.319580,375.227692 576.055054,354.982391 559.039062,339.792084 
	C544.665955,326.961121 527.540466,320.486603 507.841431,322.153290 
	C505.869293,322.320099 503.799622,321.333923 501.619080,320.451538 
	C504.592163,316.821716 507.937103,313.803711 510.799530,310.381989 
	C514.988586,305.374359 518.831604,300.077301 522.822144,294.903595 
	C522.833496,294.643463 522.844910,294.383301 523.399658,293.736633 
	C526.319397,293.309601 528.695923,293.269043 531.344727,293.439148 
	C533.386230,293.517548 535.155518,293.385223 537.395386,293.202637 
	C554.275940,293.206421 570.685852,293.260498 587.170898,293.423462 
	C587.246094,293.532349 587.614075,293.587433 587.614075,293.587433 
	C587.614075,293.587433 587.889465,293.328278 588.278198,293.275696 
	C589.441223,293.311615 590.215576,293.400116 590.989868,293.488617 
z"/>
<path fill="#1977B5" opacity="1.000000" stroke="none" 
	d="
M552.957703,630.014709 
	C554.237244,620.303467 555.516724,610.592224 556.883362,599.999695 
	C556.322449,584.741516 555.674438,570.364685 555.374023,555.946167 
	C559.412109,553.258484 561.941650,554.980103 564.484070,557.921204 
	C568.365845,562.411682 572.595581,566.599976 576.519165,571.056030 
	C583.330383,578.791809 590.394043,586.411499 591.087524,597.564514 
	C591.140320,598.414185 592.307129,599.194580 592.973816,600.475098 
	C593.002930,606.701294 592.898926,612.462769 593.062500,618.216675 
	C593.192078,622.771240 593.649963,627.316406 593.962097,631.865784 
	C593.656311,635.373230 593.350525,638.880676 592.632812,642.786560 
	C589.446838,645.688477 586.680481,647.092224 583.044495,644.387634 
	C582.151978,643.723572 580.175537,644.370300 578.732544,644.618286 
	C572.870056,645.626099 567.432312,645.044861 563.033997,640.545715 
	C559.637939,637.071777 556.313843,633.527649 552.957703,630.014709 
z"/>
<path fill="#10559C" opacity="1.000000" stroke="none" 
	d="
M552.707092,630.250366 
	C556.313843,633.527649 559.637939,637.071777 563.033997,640.545715 
	C567.432312,645.044861 572.870056,645.626099 578.732544,644.618286 
	C580.175537,644.370300 582.151978,643.723572 583.044495,644.387634 
	C586.680481,647.092224 589.446838,645.688477 592.563721,643.099976 
	C592.619019,643.831482 592.331604,644.648010 591.894287,645.833618 
	C591.744385,646.202759 591.756836,645.887939 591.756836,645.887939 
	C591.585449,646.258667 591.414062,646.629333 590.772644,647.754578 
	C587.040955,655.690735 583.772217,662.869263 580.554382,670.070435 
	C580.464294,670.271973 580.918030,670.716370 581.118225,671.047546 
	C581.118225,671.047546 581.099182,671.086121 580.826416,670.750244 
	C580.064026,671.303406 579.574463,672.192322 579.084839,673.081238 
	C579.050598,673.312195 579.016418,673.543152 578.698547,674.159058 
	C578.125732,674.902222 577.836548,675.260498 577.547363,675.618713 
	C572.311096,681.522156 567.487061,687.878540 561.684082,693.159180 
	C558.198425,696.331055 553.185669,697.824646 548.478455,700.119995 
	C544.002930,696.551941 539.824646,693.025574 535.838318,689.294128 
	C532.258301,685.943054 530.807617,681.938110 533.080139,677.168152 
	C535.716125,671.635315 538.612671,666.207886 540.916260,660.539673 
	C544.955688,650.600159 548.629517,640.511963 552.707092,630.250366 
z"/>
<path fill="#72C26E" opacity="1.000000" stroke="none" 
	d="
M569.967163,434.434692 
	C571.349182,432.602081 572.576538,431.000305 574.127380,429.825592 
	C575.671936,428.655609 577.506409,427.189606 579.273621,427.104980 
	C589.067383,426.636078 591.435547,426.266876 592.031494,439.340210 
	C592.159058,442.139832 592.726807,444.918091 592.888428,447.717896 
	C593.039551,450.335846 592.920715,452.969391 592.920715,455.596100 
	C593.392944,455.597534 593.865112,455.598938 594.337341,455.600372 
	C594.337341,443.975983 594.337341,432.351562 594.567749,420.392944 
	C594.874329,427.215851 595.021362,434.373016 595.015137,441.530060 
	C594.976501,486.167694 594.903503,530.805298 594.605591,575.846863 
	C594.369263,576.250793 594.042236,576.147949 593.971436,575.667236 
	C593.900574,568.947876 593.900574,562.709167 593.900574,556.470459 
	C593.481140,556.471985 593.061646,556.473511 592.642212,556.474976 
	C592.642212,562.035278 592.642212,567.595520 592.327332,572.961243 
	C590.994995,564.867371 589.977539,556.968018 588.960083,549.068726 
	C586.011230,528.575684 583.362671,508.033417 580.017395,487.605255 
	C577.392700,471.577271 573.903564,455.690948 570.807373,439.739929 
	C570.492310,438.116821 570.237183,436.482056 569.967163,434.434692 
z"/>
<path fill="#173691" opacity="1.000000" stroke="none" 
	d="
M301.936005,594.789185 
	C303.810669,594.190247 305.745239,592.939575 307.549622,593.105408 
	C315.274048,593.815430 323.175323,594.131104 330.611389,596.102295 
	C342.765869,599.324219 355.248199,601.595398 366.382141,608.322449 
	C372.213013,611.845520 379.228333,613.376343 385.629639,615.999817 
	C389.101135,617.422485 392.645477,618.891907 395.744904,620.958252 
	C407.334229,628.684998 418.797577,636.603760 430.210358,644.590271 
	C433.779327,647.087769 437.039764,650.026001 440.441406,652.762512 
	C440.281830,653.300232 440.122253,653.838013 439.962677,654.375732 
	C437.504913,654.912781 435.030945,655.386169 432.594421,656.006775 
	C430.586700,656.518127 428.585846,657.792358 426.649536,657.668945 
	C424.004395,657.500244 420.716156,657.065796 418.982697,655.407959 
	C416.463989,652.999023 414.146881,651.531982 409.978333,651.917603 
	C406.464050,650.165466 403.679840,648.511658 400.895630,646.857788 
	C397.169128,643.014282 393.701508,638.868958 389.655060,635.398499 
	C383.681000,630.274841 377.559753,625.232300 371.013947,620.889771 
	C363.743591,616.066467 356.075653,611.773682 348.292053,607.818176 
	C343.436066,605.350464 338.036560,603.958801 332.899750,602.034119 
	C330.826050,601.257202 328.802429,600.346680 326.360138,599.185181 
	C319.230560,597.883728 312.496857,596.893982 305.529419,595.662781 
	C304.175812,595.210632 303.055908,594.999878 301.936005,594.789185 
z"/>
<path fill="#2D969B" opacity="1.000000" stroke="none" 
	d="
M443.209839,380.951843 
	C444.184784,379.290649 444.653320,377.702301 447.593109,378.620636 
	C451.910370,379.969208 456.542786,380.728241 461.072388,380.897644 
	C473.848022,381.375397 486.416779,382.601135 498.145447,388.204620 
	C499.451080,388.828369 500.586212,389.809082 501.957672,390.960693 
	C494.771881,394.217468 487.529114,397.432556 480.057709,399.975891 
	C472.453613,402.564392 464.687469,404.759064 456.869019,406.603607 
	C452.456726,407.644592 447.796021,407.632568 443.206512,407.341919 
	C443.180511,398.043274 443.195190,389.497559 443.209839,380.951843 
z"/>
<path fill="#DDECE0" opacity="1.000000" stroke="none" 
	d="
M400.957458,647.320374 
	C403.679840,648.511658 406.464050,650.165466 409.557556,651.921265 
	C409.866852,652.023315 409.957733,652.497437 409.968231,653.165466 
	C409.928314,655.163452 410.300140,656.706360 409.755127,657.786865 
	C407.267578,662.718689 408.971710,667.351440 409.869110,672.282532 
	C410.916046,678.035706 411.114349,684.026489 410.947266,689.893250 
	C410.788727,695.460022 409.364532,700.989441 409.181030,706.557861 
	C409.123840,708.293091 411.216248,711.582886 412.458069,711.648804 
	C425.559692,712.344727 438.692169,712.848999 451.807526,712.691345 
	C456.555847,712.634216 460.446381,704.441956 457.732452,701.365295 
	C454.878510,698.129822 451.655701,695.202820 448.456909,692.291687 
	C439.544983,684.181335 430.527252,676.186462 421.686646,667.999817 
	C421.111572,667.467285 421.681061,665.698669 421.718140,664.505066 
	C434.295197,675.848999 446.734375,687.287964 461.080963,696.563416 
	C464.239471,698.605469 467.397644,700.480408 470.851501,702.425171 
	C469.300018,702.858032 467.644135,702.989685 465.706696,703.143738 
	C463.855774,706.625366 461.937744,710.233276 459.345917,715.108643 
	C443.289825,719.214783 425.260071,716.201172 407.420868,716.903931 
	C406.113647,716.955383 403.615112,715.039551 403.571747,713.961853 
	C403.392395,709.502747 403.735718,704.988953 404.273956,700.542053 
	C405.261841,692.379944 409.473328,684.581970 405.359680,675.921265 
	C403.495667,671.996887 403.634491,667.100342 402.980072,662.627930 
	C402.257507,657.689697 401.667175,652.732117 400.957458,647.320374 
z"/>
<path fill="#DDECE0" opacity="1.000000" stroke="none" 
	d="
M591.338135,293.405579 
	C590.215576,293.400116 589.441223,293.311615 588.081543,293.216492 
	C587.496094,293.209808 587.095703,293.314575 587.095703,293.314575 
	C570.685852,293.260498 554.275940,293.206421 536.984131,293.121887 
	C534.425598,293.137085 532.748962,293.182800 531.072388,293.228455 
	C528.695923,293.269043 526.319397,293.309601 523.497437,293.358459 
	C523.702271,292.563690 524.352661,291.058990 525.002869,291.059113 
	C547.598938,291.063293 570.195007,291.209320 593.058594,291.719208 
	C592.779541,292.509644 592.232971,292.916077 591.338135,293.405579 
z"/>
<path fill="#2D969B" opacity="1.000000" stroke="none" 
	d="
M594.042236,576.147949 
	C594.042236,576.147949 594.369263,576.250793 594.521118,576.335327 
	C594.613281,594.701294 594.553467,612.982849 594.227905,631.565063 
	C593.649963,627.316406 593.192078,622.771240 593.062500,618.216675 
	C592.898926,612.462769 593.002930,606.701294 592.997314,600.007324 
	C593.039612,593.976013 593.076111,588.880432 593.307373,583.475464 
	C593.682251,580.826721 593.862244,578.487305 594.042236,576.147949 
z"/>
<path fill="#CBE1D2" opacity="1.000000" stroke="none" 
	d="
M443.154724,380.490662 
	C443.195190,389.497559 443.180511,398.043274 443.060730,407.088135 
	C442.311035,406.380585 441.118896,405.180084 441.105347,403.966339 
	C440.944427,389.568054 440.945282,375.167725 440.975098,360.768097 
	C440.976410,360.143921 441.668274,359.521179 442.478516,358.872864 
	C442.978912,365.908478 443.039246,372.968964 443.154724,380.490662 
z"/>
<path fill="#CBE1D2" opacity="1.000000" stroke="none" 
	d="
M522.559692,294.985291 
	C518.831604,300.077301 514.988586,305.374359 510.799530,310.381989 
	C507.937103,313.803711 504.592163,316.821716 501.221375,320.294434 
	C500.423889,320.665466 499.867950,320.762299 499.017517,320.868896 
	C501.993256,317.393951 505.306458,313.948364 508.523468,310.415222 
	C513.151367,305.332550 517.709351,300.186188 522.559692,294.985291 
z"/>
<path fill="#CBE1D2" opacity="1.000000" stroke="none" 
	d="
M270.584961,593.000244 
	C269.981201,593.831238 268.904083,594.530823 268.032257,595.429688 
	C266.398315,597.114197 266.454468,598.329285 269.411560,598.689453 
	C266.455414,600.561707 263.246979,602.236694 259.260071,604.317993 
	C259.260071,601.174683 259.260071,599.440491 259.260071,597.548584 
	C262.820038,596.055603 266.512115,594.507141 270.584961,593.000244 
z"/>
<path fill="#CBE1D2" opacity="1.000000" stroke="none" 
	d="
M581.451233,670.961121 
	C580.918030,670.716370 580.464294,670.271973 580.554382,670.070435 
	C583.772217,662.869263 587.040955,655.690735 590.591675,648.339844 
	C589.086487,653.884216 587.445129,659.652954 585.416809,665.282227 
	C584.683105,667.318298 583.022095,669.020264 581.451233,670.961121 
z"/>
<path fill="#CBE1D2" opacity="1.000000" stroke="none" 
	d="
M494.913788,709.532715 
	C503.298462,708.994995 511.763977,708.870911 520.681519,708.917969 
	C520.848145,709.465881 520.561401,710.172668 520.277405,710.171570 
	C511.849670,710.139587 503.422150,710.037354 494.913788,709.532715 
z"/>
<path fill="#CBE1D2" opacity="1.000000" stroke="none" 
	d="
M477.507782,334.808289 
	C475.855682,336.061859 473.984650,337.278625 471.931091,338.802032 
	C471.433472,339.117523 471.122589,339.158508 470.287903,339.237915 
	C469.448547,339.450378 469.137238,339.656616 468.825928,339.862854 
	C465.845795,340.740387 462.865631,341.617920 459.656860,342.325562 
	C465.381775,339.694305 471.335327,337.232910 477.507782,334.808289 
z"/>
<path fill="#2D969B" opacity="1.000000" stroke="none" 
	d="
M301.480774,594.854065 
	C303.055908,594.999878 304.175812,595.210632 305.435974,595.840027 
	C305.378510,596.445068 305.164154,596.609863 304.933228,596.753174 
	C299.309631,596.628784 293.686066,596.504395 287.764465,596.144165 
	C291.986145,595.578613 296.505829,595.248840 301.480774,594.854065 
z"/>
<path fill="#CBE1D2" opacity="1.000000" stroke="none" 
	d="
M305.362122,596.797485 
	C305.164154,596.609863 305.378510,596.445068 305.669739,596.081482 
	C312.496857,596.893982 319.230560,597.883728 326.299622,598.910400 
	C319.686981,598.245483 312.739014,597.543640 305.362122,596.797485 
z"/>
<path fill="#72C26E" opacity="1.000000" stroke="none" 
	d="
M594.854797,412.487457 
	C594.519775,407.018494 594.144653,401.093994 594.049377,395.165009 
	C593.972107,390.360138 594.231140,385.549835 594.571045,380.410217 
	C594.845886,390.728973 594.890747,401.379486 594.854797,412.487457 
z"/>
<path fill="#CBE1D2" opacity="1.000000" stroke="none" 
	d="
M329.071564,580.428833 
	C324.160095,580.827332 319.001953,580.927551 313.371277,580.962708 
	C314.196869,580.299866 315.505066,579.177307 316.791382,579.201843 
	C320.807007,579.278320 324.814362,579.788452 329.071564,580.428833 
z"/>
<path fill="#DDECE0" opacity="1.000000" stroke="none" 
	d="
M486.623749,653.161987 
	C484.513214,653.856689 481.969513,654.662415 479.394104,654.781372 
	C477.540222,654.866943 475.644043,654.036865 473.482849,653.398926 
	C477.524933,653.114746 481.850983,653.046936 486.623749,653.161987 
z"/>
<path fill="#CBE1D2" opacity="1.000000" stroke="none" 
	d="
M494.260254,323.717468 
	C493.728149,324.479828 493.001404,325.291382 492.097504,326.031982 
	C492.635406,325.229553 493.350494,324.498108 494.260254,323.717468 
z"/>
<path fill="#CBE1D2" opacity="1.000000" stroke="none" 
	d="
M498.692200,320.912292 
	C498.009155,321.571442 497.009521,322.230988 495.785645,322.933899 
	C496.499481,322.289062 497.437531,321.600891 498.692200,320.912292 
z"/>
<path fill="#CBE1D2" opacity="1.000000" stroke="none" 
	d="
M577.682617,675.561646 
	C577.836548,675.260498 578.125732,674.902222 578.597534,674.494385 
	C578.459351,674.797974 578.138550,675.151306 577.682617,675.561646 
z"/>
<path fill="#CBE1D2" opacity="1.000000" stroke="none" 
	d="
M579.389038,673.035767 
	C579.574463,672.192322 580.064026,671.303406 580.808472,670.762207 
	C580.606689,671.736816 580.149963,672.363586 579.389038,673.035767 
z"/>
<path fill="#CBE1D2" opacity="1.000000" stroke="none" 
	d="
M591.827209,645.920410 
	C591.756836,645.887939 591.744385,646.202759 591.776917,646.259583 
	C591.809448,646.316406 592.062622,646.130798 592.062622,646.130798 
	C592.062622,646.130798 591.897583,645.952881 591.827209,645.920410 
z"/>
<path fill="#CBE1D2" opacity="1.000000" stroke="none" 
	d="
M272.364868,598.617249 
	C272.526337,598.578186 272.657837,598.397705 272.693359,598.091309 
	C272.678589,598.250366 272.591095,598.420532 272.364868,598.617249 
z"/>
<path fill="#10559C" opacity="1.000000" stroke="none" 
	d="
M555.026428,555.987793 
	C555.674438,570.364685 556.322449,584.741516 556.928955,599.592773 
	C548.948364,595.720154 541.058899,591.279053 533.054199,587.056458 
	C526.870544,583.794434 525.138428,584.167847 523.368652,590.830811 
	C521.701294,597.108276 521.464844,603.765808 520.322754,610.538452 
	C520.029663,597.117371 520.012817,583.414001 520.303162,568.944458 
	C520.725586,566.368042 520.938477,564.558105 520.941711,562.747742 
	C521.000488,529.886414 521.033936,497.025146 521.419250,464.073639 
	C523.816223,462.382874 526.094910,459.242737 527.869446,459.505615 
	C531.451721,460.036285 533.496887,459.612000 535.057678,456.308441 
	C535.403809,455.575836 536.978699,455.423706 538.233337,455.296631 
	C539.647522,461.055725 540.816223,466.522522 542.125305,472.359924 
	C543.497009,479.223053 544.954529,485.682159 545.917969,492.214142 
	C549.051392,513.457703 552.004150,534.727844 555.026428,555.987793 
z"/>
<path fill="#1C83B2" opacity="1.000000" stroke="none" 
	d="
M555.374023,555.946167 
	C552.004150,534.727844 549.051392,513.457703 545.917969,492.214142 
	C544.954529,485.682159 543.497009,479.223053 542.532166,472.375488 
	C550.893738,475.079681 559.051880,477.986664 567.043762,481.295197 
	C569.307312,482.232300 571.085449,484.341858 573.086182,485.913696 
	C575.088745,491.674561 577.716614,497.302979 578.969971,503.222412 
	C582.024048,517.646423 584.430481,532.207214 587.144714,546.704163 
	C587.283752,547.446716 587.862549,548.106995 588.598389,548.937134 
	C589.977539,556.968018 590.994995,564.867371 592.362061,573.257812 
	C592.701660,574.147278 592.691589,574.545532 592.536621,575.084839 
	C592.233582,575.465637 592.190857,575.724426 592.219177,576.397949 
	C592.487488,579.123962 592.800049,581.454468 593.112549,583.784912 
	C593.076111,588.880432 593.039612,593.976013 592.979614,599.539368 
	C592.307129,599.194580 591.140320,598.414185 591.087524,597.564514 
	C590.394043,586.411499 583.330383,578.791809 576.519165,571.056030 
	C572.595581,566.599976 568.365845,562.411682 564.484070,557.921204 
	C561.941650,554.980103 559.412109,553.258484 555.374023,555.946167 
z"/>
<path fill="#2D969B" opacity="1.000000" stroke="none" 
	d="
M573.073608,485.516418 
	C571.085449,484.341858 569.307312,482.232300 567.043762,481.295197 
	C559.051880,477.986664 550.893738,475.079681 542.391785,472.004883 
	C540.816223,466.522522 539.647522,461.055725 538.239075,454.882385 
	C533.013184,437.466827 528.027161,420.757874 523.041077,404.048889 
	C523.126709,402.924072 523.212280,401.799225 523.380371,399.590485 
	C527.168213,402.825836 530.554199,405.316498 533.463013,408.276184 
	C542.945618,417.924286 550.875122,428.876343 556.265869,441.193481 
	C562.543884,455.537903 567.519958,470.452148 573.073608,485.516418 
z"/>
<path fill="#1C83B2" opacity="1.000000" stroke="none" 
	d="
M522.706848,404.041504 
	C528.027161,420.757874 533.013184,437.466827 537.993530,454.590088 
	C536.978699,455.423706 535.403809,455.575836 535.057678,456.308441 
	C533.496887,459.612000 531.451721,460.036285 527.869446,459.505615 
	C526.094910,459.242737 523.816223,462.382874 521.392944,463.601868 
	C521.012695,460.146027 521.005127,457.071808 520.991943,453.529175 
	C521.003052,436.718109 521.019836,420.375366 521.036621,404.032654 
	C521.481934,404.033142 521.927307,404.033630 522.706848,404.041504 
z"/>
<path fill="#1977B5" opacity="1.000000" stroke="none" 
	d="
M520.997559,453.997559 
	C521.005127,457.071808 521.012695,460.146027 521.046509,463.692078 
	C521.033936,497.025146 521.000488,529.886414 520.941711,562.747742 
	C520.938477,564.558105 520.725586,566.368042 520.351562,568.461914 
	C520.073364,530.820984 520.053955,492.896423 520.282471,454.492737 
	C520.530518,454.013641 520.997559,453.997559 520.997559,453.997559 
z"/>
<path fill="#2D969B" opacity="1.000000" stroke="none" 
	d="
M520.991943,453.529175 
	C520.997559,453.997559 520.530518,454.013641 520.297729,454.026855 
	C520.065002,433.797150 520.065002,413.554199 520.065002,393.311279 
	C520.388611,393.306946 520.712219,393.302582 521.035828,393.298248 
	C521.035828,396.568909 521.035828,399.839569 521.036255,403.571442 
	C521.019836,420.375366 521.003052,436.718109 520.991943,453.529175 
z"/>
<path fill="#10559C" opacity="1.000000" stroke="none" 
	d="
M519.995544,613.555176 
	C520.199646,614.283081 520.355225,615.368652 520.259338,616.626221 
	C519.987549,615.836487 519.967285,614.874573 519.995544,613.555176 
z"/>
<path fill="#8DCE5C" opacity="1.000000" stroke="none" 
	d="
M469.106384,339.861023 
	C469.137238,339.656616 469.448547,339.450378 470.052002,339.271118 
	C470.025024,339.485077 469.705933,339.672119 469.106384,339.861023 
z"/>
<path fill="#CBE1D2" opacity="1.000000" stroke="none" 
	d="
M421.540222,664.216431 
	C421.681061,665.698669 421.111572,667.467285 421.686646,667.999817 
	C430.527252,676.186462 439.544983,684.181335 448.456909,692.291687 
	C451.655701,695.202820 454.878510,698.129822 457.732452,701.365295 
	C460.446381,704.441956 456.555847,712.634216 451.807526,712.691345 
	C438.692169,712.848999 425.559692,712.344727 412.458069,711.648804 
	C411.216248,711.582886 409.123840,708.293091 409.181030,706.557861 
	C409.364532,700.989441 410.788727,695.460022 410.947266,689.893250 
	C411.114349,684.026489 410.916046,678.035706 409.869110,672.282532 
	C408.971710,667.351440 407.267578,662.718689 409.755127,657.786865 
	C410.300140,656.706360 409.928314,655.163452 409.995850,653.405273 
	C413.796051,656.627319 417.579193,660.277527 421.540222,664.216431 
z"/>
<path fill="#CBE1D2" opacity="1.000000" stroke="none" 
	d="
M429.730530,494.717133 
	C428.730957,500.751831 427.631836,506.412781 426.487915,512.064697 
	C423.894531,524.877869 420.999481,537.639282 418.821930,550.522339 
	C418.044434,555.122375 418.454620,560.105896 419.277802,564.744934 
	C420.196228,569.920532 426.569366,572.034363 430.672119,568.646118 
	C435.259827,564.857361 439.238617,560.331482 443.825287,556.541260 
	C445.393860,555.245117 447.992279,554.739075 450.132294,554.708008 
	C452.703583,554.670715 455.272461,555.805908 457.869019,555.948486 
	C473.660156,556.815613 486.123627,562.930298 493.533600,577.645264 
	C494.281219,579.129883 496.391907,580.499146 498.081024,580.823608 
	C501.992371,581.575012 503.446472,583.600403 504.154144,587.457886 
	C505.133850,592.797974 506.645294,598.136353 508.702911,603.158447 
	C511.238953,609.348206 511.103180,614.814087 507.461548,620.554016 
	C503.383606,626.981689 499.872986,633.769287 496.115509,640.400330 
	C495.873871,639.924927 495.632233,639.449585 495.390594,638.974182 
	C492.521088,639.962036 489.500977,640.682556 486.900391,642.147766 
	C486.333099,642.467468 487.265320,645.448425 487.609192,647.946655 
	C484.263489,651.131836 480.300049,647.770996 477.002045,646.247314 
	C469.862335,642.948669 463.199249,638.618530 456.105804,634.576050 
	C459.550690,630.975220 463.207001,629.872070 467.917603,629.819641 
	C478.648193,629.700317 492.387878,614.810364 493.020325,603.625671 
	C493.299866,598.682129 493.902161,593.747620 494.571045,588.837952 
	C495.234528,583.967834 492.720917,580.966919 486.530884,579.346313 
	C480.666260,577.810852 474.764954,576.347900 469.023895,574.423340 
	C459.551025,571.247742 454.638367,572.276001 447.866791,579.682129 
	C445.518829,582.250061 443.467438,585.086975 441.163574,587.697815 
	C435.426392,594.199585 437.431488,601.633240 438.529541,608.947571 
	C438.841064,611.022644 439.425812,613.056702 439.061554,615.719177 
	C437.756195,614.597778 436.450806,613.476379 435.145447,612.354980 
	C434.768402,612.541138 434.391327,612.727295 434.014282,612.913452 
	C434.870544,615.303711 435.726807,617.693970 437.102936,621.535400 
	C433.735870,619.033630 431.295563,617.384583 429.037933,615.515076 
	C418.501801,606.790100 406.868347,600.135803 394.332794,594.515686 
	C388.264343,591.795044 381.784271,587.168091 377.631073,582.384766 
	C370.059143,573.663940 365.164429,562.595398 359.374451,552.380737 
	C358.672729,551.142700 359.339203,549.129150 359.371552,547.475037 
	C360.980438,548.054382 363.039886,548.197388 364.108063,549.300415 
	C366.632355,551.906860 368.690063,554.966187 370.924194,557.851868 
	C371.330139,558.376221 371.601410,559.022766 372.064728,559.481812 
	C375.095764,562.484985 377.988373,566.872498 382.949615,564.277222 
	C387.902679,561.686279 385.255890,557.083618 384.551544,553.139099 
	C383.943604,549.734314 383.662659,546.266113 382.953857,542.885376 
	C381.702057,536.914673 380.144989,531.008179 378.880157,525.039978 
	C377.258575,517.388672 378.633240,509.905273 379.657501,501.410980 
	C386.583527,505.387634 387.652710,511.288910 388.983246,516.986267 
	C390.449707,523.265747 391.346893,529.727112 393.435883,535.783630 
	C394.095917,537.697266 398.054688,539.944092 400.032837,539.567139 
	C402.619965,539.074097 405.835754,536.582703 406.845703,534.148132 
	C409.419739,527.943298 410.908752,521.289490 412.850830,514.821045 
	C414.978271,507.735016 416.934753,500.588135 419.375183,493.611023 
	C420.182373,491.303223 422.260590,489.440033 423.757660,487.373566 
	C425.416931,489.096893 427.107513,490.791840 428.714600,492.562531 
	C429.144226,493.035919 429.318939,493.740692 429.730530,494.717133 
z"/>
<path fill="#000000" opacity="1.000000" stroke="none" 
	d="
M443.202698,612.233643 
	C442.405670,607.842041 441.756500,603.820801 441.079681,599.804138 
	C440.435822,595.983276 444.708649,589.400513 447.665161,586.799133 
	C450.396606,584.395813 451.850830,580.540955 454.052429,577.030640 
	C457.623627,577.030640 461.743561,576.416931 465.567017,577.218140 
	C468.826508,577.901184 471.652466,580.438049 474.839752,581.739685 
	C478.164490,583.097351 481.654510,584.124573 485.158264,584.915039 
	C485.995972,585.104065 487.174988,583.780518 489.380280,582.425720 
	C488.688446,585.190430 488.163696,587.024231 487.782593,588.887451 
	C487.430969,590.606628 487.189911,592.352051 486.976227,594.095215 
	C486.306946,599.554810 486.572845,605.347351 484.736053,610.375061 
	C483.318665,614.254700 479.404877,617.294800 476.375244,620.494446 
	C472.702271,624.373596 467.939270,625.838196 462.780731,624.884949 
	C458.359283,624.067932 453.753387,623.426331 450.464172,619.577332 
	C448.313995,617.061157 445.728821,614.916809 443.202698,612.233643 
z"/>
<path fill="#8DCE5C" opacity="1.000000" stroke="none" 
	d="
M531.344727,293.439148 
	C532.748962,293.182800 534.425598,293.137085 536.513428,293.172150 
	C535.155518,293.385223 533.386230,293.517548 531.344727,293.439148 
z"/>
<path fill="#8DCE5C" opacity="1.000000" stroke="none" 
	d="
M587.170898,293.423462 
	C587.095703,293.314575 587.496094,293.209808 587.692749,293.269043 
	C587.889465,293.328278 587.614075,293.587433 587.614075,293.587433 
	C587.614075,293.587433 587.246094,293.532349 587.170898,293.423462 
z"/>
<path fill="#CBE1D2" opacity="1.000000" stroke="none" 
	d="
M593.307373,583.475464 
	C592.800049,581.454468 592.487488,579.123962 592.383728,576.269043 
	C592.795410,575.497070 592.825134,575.230164 592.681580,574.943787 
	C592.691589,574.545532 592.701660,574.147278 592.677002,573.452393 
	C592.642212,567.595520 592.642212,562.035278 592.642212,556.474976 
	C593.061646,556.473511 593.481140,556.471985 593.900574,556.470459 
	C593.900574,562.709167 593.900574,568.947876 593.971436,575.667236 
	C593.862244,578.487305 593.682251,580.826721 593.307373,583.475464 
z"/>
<path fill="#72C26E" opacity="1.000000" stroke="none" 
	d="
M592.536621,575.084839 
	C592.825134,575.230164 592.795410,575.497070 592.427917,575.873413 
	C592.190857,575.724426 592.233582,575.465637 592.536621,575.084839 
z"/>
</svg>